<svg xmlns="http://www.w3.org/2000/svg" xmlns:xlink="http://www.w3.org/1999/xlink" width="45" height="43" viewBox="0 0 45 43"><defs><path id="vc87a" d="M743.67 6827.87h-18.624c-.734 0-1.33-.643-1.33-1.434v-28.678c0-.792.596-1.434 1.33-1.434h18.624c.734 0 1.33.642 1.33 1.434v28.678c0 .791-.596 1.434-1.33 1.434z"/><path id="vc87b" d="M730.367 6805.446h-5.32a1.33 1.33 0 0 1 0-2.66h5.32a1.33 1.33 0 0 1 0 2.66z"/><path id="vc87c" d="M730.367 6810.767h-5.32a1.33 1.33 0 0 1 0-2.66h5.32a1.33 1.33 0 0 1 0 2.66z"/><path id="vc87d" d="M730.367 6816.088h-5.32a1.33 1.33 0 0 1 0-2.66h5.32a1.33 1.33 0 0 1 0 2.66z"/><path id="vc87e" d="M730.367 6821.409h-5.32a1.33 1.33 0 0 1 0-2.66h5.32a1.33 1.33 0 0 1 0 2.66z"/><path id="vc87f" d="M738.349 6805.446h-2.66a1.33 1.33 0 0 1 0-2.66h2.66a1.33 1.33 0 0 1 0 2.66z"/><path id="vc87g" d="M738.349 6810.767h-2.66a1.33 1.33 0 0 1 0-2.66h2.66a1.33 1.33 0 0 1 0 2.66z"/><path id="vc87h" d="M738.349 6816.088h-2.66a1.33 1.33 0 0 1 0-2.66h2.66a1.33 1.33 0 0 1 0 2.66z"/><path id="vc87i" d="M738.349 6821.409h-2.66a1.33 1.33 0 0 1 0-2.66h2.66a1.33 1.33 0 0 1 0 2.66z"/><path id="vc87j" d="M723.463 6791.326a1.256 1.256 0 0 0-1.094-.298l-21.284 4.22c-.63.123-1.085.702-1.085 1.38v30.938c0 .675.455 1.257 1.085 1.38l21.284 4.22a1.282 1.282 0 0 0 1.093-.298 1.44 1.44 0 0 0 .482-1.084v-39.375c0-.419-.175-.815-.481-1.083z"/><path id="vc87k" d="M718.822 6816.483l-4.206-4.808 4.254-5.47a1.332 1.332 0 0 0-.231-1.867 1.333 1.333 0 0 0-1.868.231l-3.94 5.066-3.32-3.794a1.323 1.323 0 0 0-1.876-.125 1.328 1.328 0 0 0-.125 1.875l3.658 4.183-3.709 4.767a1.332 1.332 0 0 0 .232 1.868 1.339 1.339 0 0 0 1.87-.234l3.392-4.364 3.868 4.42a1.32 1.32 0 0 0 1.876.127c.553-.484.61-1.325.125-1.875z"/></defs><g><g transform="translate(-700 -6791)"><use fill="#eceff1" xlink:href="#vc87a"/></g><g transform="translate(-700 -6791)"><use fill="#388e3c" xlink:href="#vc87b"/></g><g transform="translate(-700 -6791)"><use fill="#388e3c" xlink:href="#vc87c"/></g><g transform="translate(-700 -6791)"><use fill="#388e3c" xlink:href="#vc87d"/></g><g transform="translate(-700 -6791)"><use fill="#388e3c" xlink:href="#vc87e"/></g><g transform="translate(-700 -6791)"><use fill="#388e3c" xlink:href="#vc87f"/></g><g transform="translate(-700 -6791)"><use fill="#388e3c" xlink:href="#vc87g"/></g><g transform="translate(-700 -6791)"><use fill="#388e3c" xlink:href="#vc87h"/></g><g transform="translate(-700 -6791)"><use fill="#388e3c" xlink:href="#vc87i"/></g><g transform="translate(-700 -6791)"><use fill="#2e7d32" xlink:href="#vc87j"/></g><g transform="translate(-700 -6791)"><use fill="#fafafa" xlink:href="#vc87k"/></g></g></svg>