<svg xmlns="http://www.w3.org/2000/svg" xmlns:xlink="http://www.w3.org/1999/xlink" width="18" height="17" viewBox="0 0 18 17"><defs><path id="hf8ea" d="M851.4 1358h-.8l-.3-.3c1.2-1.4 1.8-3.3 1.5-5.3-.5-2.8-2.8-5-5.6-5.3-4.2-.5-7.8 3-7.3 7.3.3 2.8 2.6 5.1 5.3 5.6 2 .3 3.9-.3 5.3-1.5l.3.3v.8l4.2 4.2c.4.4 1.1.4 1.5 0 .4-.4.4-1.1 0-1.5zm-6 0c-2.5 0-4.5-2-4.5-4.5s2-4.5 4.5-4.5 4.5 2 4.5 4.5-2 4.5-4.5 4.5z"/></defs><g><g opacity=".5" transform="translate(-838 -1347)"><use fill="#bcbdc0" xlink:href="#hf8ea"/></g></g></svg>