<svg xmlns="http://www.w3.org/2000/svg" xmlns:xlink="http://www.w3.org/1999/xlink" width="45" height="43" viewBox="0 0 45 43"><defs><path id="t7v2a" d="M743.594 7119.803h-19.688a1.41 1.41 0 0 1-1.406-1.417v-28.344c0-.782.63-1.417 1.406-1.417h19.688c.776 0 1.406.635 1.406 1.417v28.344a1.41 1.41 0 0 1-1.406 1.417z"/><path id="t7v2b" d="M737.969 7097.183h-14.063a1.405 1.405 0 0 1-1.406-1.406c0-.78.63-1.407 1.406-1.407h14.063a1.407 1.407 0 0 1 0 2.813z"/><path id="t7v2c" d="M737.969 7102.808h-14.063a1.405 1.405 0 0 1-1.406-1.406c0-.78.63-1.407 1.406-1.407h14.063a1.407 1.407 0 0 1 0 2.813z"/><path id="t7v2d" d="M737.969 7108.433h-14.063a1.405 1.405 0 0 1-1.406-1.406c0-.78.63-1.407 1.406-1.407h14.063a1.407 1.407 0 0 1 0 2.813z"/><path id="t7v2e" d="M737.969 7114.058h-14.063a1.405 1.405 0 0 1-1.406-1.406c0-.78.63-1.407 1.406-1.407h14.063a1.407 1.407 0 0 1 0 2.813z"/><path id="t7v2f" d="M724.803 7083.328a1.378 1.378 0 0 0-1.155-.302l-22.5 4.242a1.413 1.413 0 0 0-1.148 1.39v31.113c0 .679.48 1.264 1.147 1.389l22.5 4.243a1.395 1.395 0 0 0 1.156-.3c.324-.269.51-.668.51-1.09v-39.599c0-.421-.186-.817-.51-1.086z"/><path id="t7v2g" d="M718.273 7111.41a1.407 1.407 0 0 1-2.714.337l-2.903-7.74-2.902 7.74c-.225.602-.816.97-1.468.902a1.403 1.403 0 0 1-1.24-1.2l-1.407-9.844a1.407 1.407 0 0 1 2.784-.397l.628 4.399 2.286-6.1c.41-1.097 2.222-1.097 2.635 0l2.155 5.743.756-6.812a1.423 1.423 0 0 1 1.553-1.243c.773.09 1.327.784 1.243 1.555z"/></defs><g><g transform="translate(-700 -7083)"><use fill="#eceff1" xlink:href="#t7v2a"/></g><g transform="translate(-700 -7083)"><g><use fill="#1976d2" xlink:href="#t7v2b"/></g><g><use fill="#1976d2" xlink:href="#t7v2c"/></g><g><use fill="#1976d2" xlink:href="#t7v2d"/></g><g><use fill="#1976d2" xlink:href="#t7v2e"/></g></g><g transform="translate(-700 -7083)"><use fill="#1565c0" xlink:href="#t7v2f"/></g><g transform="translate(-700 -7083)"><use fill="#fafafa" xlink:href="#t7v2g"/></g></g></svg>