<svg xmlns="http://www.w3.org/2000/svg" xmlns:xlink="http://www.w3.org/1999/xlink" width="16" height="22" viewBox="0 0 16 22"><defs><path id="kzl0a" d="M853 1396.8c-.7-1-1.5-2-2.4-2.9-.4-.3-.9 0-.8.5.2.9.4 2.2.4 3.3 0 2.1-1.4 3.7-3.4 3.7-1.5 0-2.8-.9-3.4-2.3-.1-.2-.1-.3-.2-.5-.1-.4-.7-.5-.9-.2-.2.3-.4.5-.5.8-1.2 2-1.9 4.4-1.9 7 0 4.4 3.6 8 8 8s8-3.6 8-8c0-3.5-1.1-6.7-2.9-9.4zm-5.4 14.4c-1.8 0-3.2-1.4-3.2-3.1 0-1.6 1-2.8 2.8-3.1 1.5-.3 3-.9 4-1.9.3-.3.7-.1.8.2.2 1 .4 2.1.4 3.2 0 2.6-2.1 4.7-4.8 4.7z"/></defs><g><g opacity=".5" transform="translate(-840 -1393)"><use fill="#bcbdc0" xlink:href="#kzl0a"/></g></g></svg>