<svg id="SVGDoc" width="30" height="30" xmlns="http://www.w3.org/2000/svg" version="1.1" xmlns:xlink="http://www.w3.org/1999/xlink" xmlns:avocode="https://avocode.com/" viewBox="0 0 30 30"><defs><path d="M1370,27c0,-8.28427 6.71573,-15 15,-15c8.28427,0 15,6.71573 15,15c0,8.28427 -6.71573,15 -15,15c-8.28427,0 -15,-6.71573 -15,-15z" id="Path-0"/><path d="M1391.09998,34.12918c-0.40002,-0.1 -0.80005,-0.2 -1.19995,-0.3c-0.5,-0.3 -0.90002,-1.4 -1.19995,-1.9c-0.19995,0 -0.5,-0.1 -0.69995,-0.1c0,-0.8 0.5,-0.9 0.69995,-1.5c0.19995,-0.6 0,-1.3 0.30005,-1.8c0.19995,-0.4 0.59998,-0.4 0.80005,-0.7c0.19995,-0.3 0.30005,-0.8 0.40002,-1.1c0.09998,-0.6 0.19995,-1.5 -0.09998,-2.1c-0.19995,-0.4 -0.30005,-0.4 -0.30005,-0.8c-0.09998,-0.5 0.19995,-2.2 0.19995,-2.6c0,-0.9 0,-1 -0.19995,-1.9c0,0 -0.30005,-0.8 -0.69995,-1.1l-0.90002,-0.2l-0.5,-0.5c-2.19995,-1.3 -4.5,-0.4 -5.69995,0.1c-1.80005,0.6 -2.90002,2.3 -2.09998,6.1c0.09998,0.6 -0.40002,0.9 -0.30005,1.3c0.09998,0.8 0.09998,2.6 0.80005,3.1c0.09998,0 0.59998,0.2 0.59998,0.1c0.09998,0.7 0.09998,1.5 0.19995,2.2c0.19995,0.5 0.59998,0.5 0.69995,1.2l-0.59998,0.1c-0.30005,0.5 -0.69995,1.6 -1.19995,1.9c-0.40002,0.1 -0.80005,0.2 -1.19995,0.3c-1.40002,0.6 -2.90002,1.2 -4.30005,1.8c-0.40002,0.2 -0.90002,0.3 -1.30005,0.5c2.40002,3 6,5 10,5.4l0.80005,-5.7l-0.69995,-1.5l1.69995,-0.8l1.40002,0.8l-0.80005,1.6l1.30005,5.6c3.80005,-0.5 7.19995,-2.5 9.5,-5.4c-0.40002,-0.2 -0.90002,-0.3 -1.30005,-0.5c-1.2002,-0.39999 -2.80017,-0.99999 -4.10022,-1.59999z" id="Path-1"/></defs><desc>Generated with Avocode.</desc><g transform="matrix(1,0,0,1,-1370,-12)"><g><title>Ellipse 2</title><use xlink:href="#Path-0" fill="#efedec" fill-opacity="1"/></g><g><title>Path 119</title><use xlink:href="#Path-1" fill="#bcbdc0" fill-opacity="1"/></g></g></svg>