<svg xmlns="http://www.w3.org/2000/svg" xmlns:xlink="http://www.w3.org/1999/xlink" width="45" height="52" viewBox="0 0 45 52"><defs><path id="ylkoa" d="M709.698 6574.1a3.221 3.221 0 0 0-3.21 3.215v45a3.221 3.221 0 0 0 3.21 3.214h32.093a3.221 3.221 0 0 0 3.209-3.214v-35.357l-12.837-12.857z"/><path id="ylkob" d="M735.267 6587.078H745l-12.977-12.977v9.732a3.254 3.254 0 0 0 3.244 3.245z"/><path id="ylkoc" d="M745 6596.663l-9.733-9.733H745z"/><path id="ylkod" d="M738.512 6615.916c0 .892-.723 1.622-1.605 1.622h-35.302c-.883 0-1.605-.73-1.605-1.622v-16.22c0-.893.722-1.623 1.605-1.623h35.302c.882 0 1.605.73 1.605 1.622z"/><path id="ylkoe" d="M708.636 6605.239v3.231h2.165c.87 0 1.557-.767 1.557-1.572 0-.906-.687-1.66-1.557-1.66zm-1.712-.738c0-.428.338-.896.881-.896h2.996c1.687 0 3.206 1.13 3.206 3.293 0 2.05-1.519 3.193-3.206 3.193h-2.165v1.713c0 .57-.364.893-.83.893a.874.874 0 0 1-.882-.893z"/><path id="ylkof" d="M717.364 6605.305v5.81h2.153c3.502 0 3.658-5.81 0-5.81zm-.817 7.392c-.429 0-.896-.233-.896-.803v-7.367c0-.466.467-.805.896-.805h2.97c5.927 0 5.797 8.975.117 8.975z"/><path id="ylkog" d="M727.417 6605.41v2.061h3.307c.467 0 .934.467.934.92 0 .428-.467.778-.934.778h-3.307v2.724c0 .454-.323.803-.777.803-.571 0-.92-.349-.92-.803v-7.368c0-.465.35-.804.92-.804h4.553c.57 0 .908.339.908.804a.896.896 0 0 1-.908.883h-3.776z"/><path id="ylkoh" d="M736.91 6617.418h-30.422v1.623h30.422c.881 0 1.602-.73 1.602-1.623v-1.622c0 .893-.721 1.622-1.602 1.622z"/></defs><g><g transform="translate(-700 -6574)"><g><use fill="#e2e5e7" xlink:href="#ylkoa"/></g><g><use fill="#b0b7bd" xlink:href="#ylkob"/></g><g><use fill="#cad1d8" xlink:href="#ylkoc"/></g><g><use fill="#ee3124" xlink:href="#ylkod"/></g><g><g><use fill="#fff" xlink:href="#ylkoe"/></g><g><use fill="#fff" xlink:href="#ylkof"/></g><g><use fill="#fff" xlink:href="#ylkog"/></g></g><g><use fill="#cad1d8" xlink:href="#ylkoh"/></g></g></g></svg>