<svg xmlns="http://www.w3.org/2000/svg" xmlns:xlink="http://www.w3.org/1999/xlink" width="20" height="22" viewBox="0 0 20 22"><defs><path id="7hyxa" d="M705 1401.5c.6 0 1-.5 1-1v-2h2c.6 0 1-.5 1-1s-.4-1-1-1h-2v-2c0-.5-.4-1-1-1-.5 0-1 .5-1 1v2h-2c-.6 0-1 .5-1 1s.4 1 1 1h2v2c0 .5.5 1 1 1zm-5 9c-1.1 0-2 .9-2 2s.9 2 2 2 2-.9 2-2-.9-2-2-2zm10 0c-1.1 0-2 .9-2 2s.9 2 2 2 2-.9 2-2-.9-2-2-2zm-8.9-5h7.5c.8 0 1.4-.4 1.8-1l3.4-6.1c.3-.5.1-1.1-.4-1.4-.5-.3-1.1-.1-1.4.4l-3.4 6.1h-7l-4-8.4c-.2-.3-.5-.6-.9-.6H695c-.5 0-1 .5-1 1s.5 1 1 1h1l3.6 7.6-1.3 2.4c-.7 1.3.2 3 1.8 3h11c.6 0 1-.5 1-1s-.4-1-1-1H700z"/></defs><g><g opacity=".5" transform="translate(-694 -1393)"><use fill="#bcbdc0" xlink:href="#7hyxa"/></g></g></svg>