<svg xmlns="http://www.w3.org/2000/svg" xmlns:xlink="http://www.w3.org/1999/xlink" width="22" height="20" viewBox="0 0 22 20"><defs><path id="cwija" d="M848.6 1455.7c-.3.6-1.2.8-1.8.3l-2-2-4.3 4.3c-.4.4-1 .4-1.4 0-.4-.4-.4-1 0-1.4l4.4-4.3c-.9-1-1.7-2.1-2.3-3.2-.3-.5.1-1.3.8-1.3.3 0 .6.2.8.5.6 1 1.3 2 2.1 2.9 1.5-1.6 2.5-3.5 3.2-5.4h-10.2c-.5 0-1-.4-1-1 0-.5.5-1 1-1h6v-1c0-.5.5-1 1-1s1 .5 1 1v1h6c.5 0 1 .5 1 1s-.5 1-1 1H850c-.7 2.3-2 4.6-3.7 6.5l2.1 2.1c.3.2.3.6.2 1zm4.8-5.7c.6 0 1.1.4 1.4.9l3.7 9.8c.2.6-.3 1.3-.9 1.3-.4 0-.8-.2-.9-.6l-.9-2.4H851l-.9 2.4c-.2.4-.5.6-.9.6-.7 0-1.1-.7-.9-1.3l3.7-9.8c.3-.5.8-.9 1.4-.9zm1.6 7l-1.6-4.3-1.6 4.3z"/></defs><g><g opacity=".5" transform="translate(-837 -1442)"><use fill="#bcbdc0" xlink:href="#cwija"/></g></g></svg>