<svg xmlns="http://www.w3.org/2000/svg" xmlns:xlink="http://www.w3.org/1999/xlink" width="179" height="59" viewBox="0 0 179 59"><defs><path id="21dda" d="M712.882 411.338c0-2.333-.778-3.333-2.556-3.333-1.777 0-2.555 1-2.555 3.333v2.333c0 2.333.778 3.333 2.555 3.333 1.778 0 2.556-1 2.556-3.333zm-2.556 7.888c-2.888 0-5-1.667-5-5.555v-2.333c0-3.889 2.112-5.555 5-5.555 2.889 0 5 1.666 5 5.555v2.333c.11 3.888-2 5.555-5 5.555z"/><path id="21ddb" d="M720.214 417.115c.334 0 1.222.111 1.556.111 1.777 0 2.666-.555 2.666-2v-.444c0-1.444-.889-2-2.666-2-.334 0-1.222 0-1.556.111zm0-9.11v2.777h1.556c2.666 0 5.11 1 5.11 4.111v.333c0 3.111-2.333 4.111-5.11 4.111-1.333 0-2.556-.111-3.444-.222-.334 0-.556-.222-.556-.556v-12.332c0-.222.111-.333.333-.333h7.666c.223 0 .334.11.334.333v1.444c0 .223-.111.334-.334.334z"/><path id="21ddc" d="M732.102 417.115c.333 0 1.222.111 1.556.111 1.777 0 2.666-.555 2.666-2v-.444c0-1.444-.889-2-2.666-2-.334 0-1.223 0-1.556.111zm0-10.888v4.444h1.556c2.666 0 5.11 1 5.11 4.11v.334c0 3.111-2.333 4.111-5.11 4.111-1.334 0-2.556-.111-3.445-.222-.333 0-.555-.222-.555-.556v-10.443h-1.222c-.222 0-.333-.222-.333-.334v-1.444c0-.222.11-.333.333-.333h3.333c.222 0 .333.222.333.333z"/><path id="21ddd" d="M748.212 418.893c-.556.11-1.222.222-3.333.222-2.333 0-4.11-.667-4.11-3.666v-6c0-3 1.777-3.666 4.11-3.666 2.11 0 2.777.11 3.333.222.222 0 .333.111.333.333v1.111c0 .222-.11.333-.333.333h-3.555c-1 0-1.445.334-1.445 1.556v2h4.778c.222 0 .333.11.333.333v1.222c0 .222-.111.333-.333.333h-4.778v2.223c0 1.11.334 1.555 1.445 1.555h3.555c.222 0 .333.111.333.333v1.111c0 .334 0 .445-.333.445z"/><path id="21dde" d="M754.434 416.893h4.777l-2.111-8.666c0-.222-.111-.333-.333-.333-.222 0-.222.11-.334.333zm-2.445 0l2.445-9.222c.444-1.666 1.666-1.777 2.444-1.777s2 .11 2.444 1.777l2.444 9.222h1.334c.222 0 .333.11.333.333v3.889c0 .222-.111.333-.333.333h-1.778c-.222 0-.333-.111-.333-.333v-2.111h-8.222v2.11c0 .223-.111.334-.333.334h-1.778c-.222 0-.333-.111-.333-.333v-3.889c0-.222.11-.333.333-.333z"/><path id="21ddf" d="M765.322 406.227c0-.222.11-.333.333-.333h1.555c.223 0 .334.11.334.333v9.333c0 .11 0 .11.11.11 0 0 .112 0 .112-.11l4.11-9.11c.223-.445.445-.556.778-.556h1.889c.333 0 .667.333.667.666v12c0 .222-.111.333-.334.333h-1.555c-.222 0-.333-.111-.333-.334v-8.888c0-.11 0-.11-.112-.11 0 0-.11 0-.11.11l-3.89 8.555c-.332.667-.666.667-1.11.667h-1.778c-.333 0-.666-.334-.666-.667z"/><path id="21ddg" d="M787.43 419.004h-1.777c-.222 0-.333-.111-.333-.334v-5.332h-5v5.444c0 .222-.11.333-.333.333h-1.778c-.222 0-.333-.111-.333-.333v-12.555c0-.222.111-.333.333-.333h1.778c.222 0 .333.11.333.333v4.889h5v-4.889c0-.222.111-.333.333-.333h1.778c.222 0 .333.11.333.333v12.443c.111.223-.111.334-.333.334z"/><path id="21ddh" d="M797.874 418.893c-.555.11-1.222.222-3.333.222-2.333 0-4.11-.667-4.11-3.666v-6c0-3 1.777-3.666 4.11-3.666 2.111 0 2.778.11 3.333.222.223 0 .334.111.334.333v1.111c0 .222-.111.333-.334.333h-3.555c-1 0-1.444.334-1.444 1.556v2h4.777c.222 0 .333.11.333.333v1.222c0 .222-.11.333-.333.333h-4.777v2.223c0 1.11.333 1.555 1.444 1.555h3.555c.223 0 .334.111.334.333v1.111c.11.334 0 .445-.334.445z"/><path id="21ddi" d="M810.096 419.004h-1.778c-.222 0-.333-.111-.333-.334v-5.332h-5v5.444c0 .222-.111.333-.333.333h-1.778c-.222 0-.333-.111-.333-.333v-12.555c0-.222.11-.333.333-.333h1.778c.222 0 .333.11.333.333v4.889h5v-4.889c0-.222.11-.333.333-.333h1.778c.222 0 .333.11.333.333v12.443c0 .223-.111.334-.333.334z"/><path id="21ddj" d="M822.761 419.004h-1.777c-.223 0-.334-.111-.334-.334v-5.332h-5v5.444c0 .222-.11.333-.333.333h-1.777c-.223 0-.334-.111-.334-.333v-12.555c0-.222.111-.333.334-.333h1.777c.223 0 .334.11.334.333v4.889h5v-4.889c0-.222.11-.333.333-.333h1.777c.222 0 .333.11.333.333v12.443c0 .223-.222.334-.333.334z"/><path id="21ddk" d="M830.65 408.116c0-.222-.112-.333-.334-.333-.222 0-.222.11-.333.333l-1.222 5.222h3.11zm4.777 10.888h-1.889c-.111 0-.333-.111-.333-.334l-.778-3.333h-4.11l-.778 3.333c0 .112-.223.334-.334.334h-1.888c-.223 0-.334-.111-.334-.334v-.11l2.889-11.11c.444-1.667 1.666-1.778 2.444-1.778s2 .11 2.444 1.777l2.889 11.11v.111c0 .223-.111.334-.222.334z"/><path id="21ddl" d="M840.093 409.893c0 1.556.778 2 2.666 2h1.556v-3.888c-.333 0-1.222-.111-1.556-.111-1.777 0-2.666.555-2.666 1.888zm-2.778 8.777l2.778-5.11c-1.444-.556-2.333-1.778-2.333-3.555v-.223c0-3 2.333-4 5.11-4 1.334 0 2.556.112 3.445.223.333 0 .555.222.555.555v12.11c0 .223-.11.334-.333.334h-1.778c-.222 0-.333-.111-.333-.334v-4.777c-.444 0-1.111.111-1.555.111h-.334l-2.555 4.666c-.111.223-.111.334-.333.334h-2.111a.239.239 0 0 1-.223-.222v-.112z"/><path id="21ddm" d="M716.326 441.446h-1.778c-.111 0-.333-.222-.333-.333v-8.222-.222l-.111.111-1.667 3.333a.611.611 0 0 1-.555.334h-1.778a.611.611 0 0 1-.555-.334l-1.667-3.333-.111-.11v8.443c0 .222-.111.333-.333.333h-1.778c-.111 0-.333-.11-.333-.222v-12.11c0-.333.333-.667.666-.667h1.445c.333 0 .555.223.666.445l2.667 5.444c.11.11.11.222.222.222.11 0 .11-.111.222-.222l2.666-5.444c.112-.222.334-.445.667-.445h1.444c.334 0 .667.334.667.667v12.11c0 .222-.111.222-.333.222z"/><path id="21ddn" d="M726.77 441.335c-.556.111-1.223.222-3.334.222-2.333 0-4.11-.666-4.11-3.666v-6.11c0-3 1.777-3.667 4.11-3.667 2.111 0 2.778.111 3.333.222.222 0 .334.111.334.334v1.11c0 .223-.112.334-.334.334h-3.555c-1 0-1.444.333-1.444 1.555v1.89h4.777c.222 0 .333.11.333.332v1.223c0 .222-.11.333-.333.333h-4.777v2.222c0 1.11.333 1.555 1.444 1.555h3.555c.222 0 .334.111.334.334v1.11c0 .556-.112.667-.334.667z"/><path id="21ddo" d="M737.88 430.447h-3.111v10.666c0 .222-.111.333-.334.333h-1.777c-.223 0-.334-.11-.334-.333v-10.666h-3.11c-.223 0-.334-.11-.334-.333v-1.444c0-.223.111-.334.334-.334h8.665c.223 0 .334.111.334.334v1.444c0 .222-.111.333-.334.333z"/><path id="21ddp" d="M743.93 430.558c0-.222-.112-.333-.334-.333-.222 0-.222.111-.333.333l-1.223 5.222h3.111zm4.665 10.888h-1.888c-.111 0-.334-.11-.334-.333l-.777-3.333h-4.111l-.778 3.333c0 .111-.222.333-.333.333h-1.889c-.222 0-.333-.11-.333-.333v-.111l2.889-11.11c.444-1.667 1.666-1.778 2.444-1.778.777 0 2 .111 2.444 1.778l2.889 11.11v.111c.11.222 0 .333-.223.333z"/><path id="21ddq" d="M756.017 430.558c0-.222-.111-.333-.333-.333-.223 0-.223.111-.334.333l-2.555 10.555c0 .111-.222.333-.333.333h-1.89c-.221 0-.332-.11-.332-.333v-.111l2.888-11.11c.445-1.667 1.667-1.778 2.444-1.778.778 0 2 .111 2.445 1.778l2.888 11.11v.111c0 .222-.11.333-.333.333h-1.889c-.11 0-.333-.11-.333-.333z"/><path id="21ddr" d="M768.105 430.558c0-.222-.112-.333-.334-.333-.222 0-.222.111-.333.333l-2.555 10.555c0 .111-.223.333-.334.333h-1.888c-.223 0-.334-.11-.334-.333v-.111l2.889-11.11c.444-1.667 1.666-1.778 2.444-1.778s2 .111 2.444 1.778l2.889 11.11v.111c0 .222-.111.333-.333.333h-1.889c-.111 0-.333-.11-.333-.333z"/><path id="21dds" d="M781.193 428.67c0-.111.11-.334.333-.334h1.778c.222 0 .444.111.333.445l-2.889 10.11c-.555 1.889-1.222 2.778-3.555 2.778a9.784 9.784 0 0 1-1.889-.223c-.222 0-.333-.11-.333-.333v-1.111c0-.222.222-.333.444-.333.556 0 1.556.11 2 .11.778 0 1.111-.221 1.445-1.11l.11-.334h-.222c-.555 0-1.11-.11-1.555-1.444l-2.333-8.11c-.111-.222 0-.445.333-.445h1.778c.222 0 .333.111.333.334l1.778 7.221c.11.334.11.445.333.445h.111z"/><path id="21ddt" d="M792.283 432.336c0-1.444-.889-2-2.667-2-.333 0-1.222 0-1.555.111v4.222h1.555c1.89 0 2.667-.666 2.667-2.11zm-2.667 4.222c-.444 0-1.11 0-1.555-.111v4.555c0 .222-.111.333-.333.333h-1.778c-.222 0-.333-.11-.333-.333v-12c0-.332.222-.443.555-.555a29.88 29.88 0 0 1 3.444-.222c2.667 0 5.111 1 5.111 4.111v.111c0 3.11-2.444 4.11-5.11 4.11z"/><path id="21ddu" d="M799.152 441.113c0 .222-.111.333-.333.333h-1.778c-.222 0-.333-.11-.333-.333v-9.333c0-3 1.778-3.666 4.11-3.666 2.112 0 2.778.111 3.334.222.222 0 .333.111.333.334v1.11c0 .223-.111.334-.333.334h-3.556c-1 0-1.444.333-1.444 1.555v9.444z"/><path id="21ddv" d="M806.465 428.67c0-.223.11-.334.333-.334h1.555c.223 0 .334.111.334.334v9.332c0 .111 0 .111.11.111 0 0 .112 0 .112-.11l4.11-9.111c.223-.445.445-.556.778-.556h1.89c.332 0 .666.334.666.667v12.11c0 .222-.111.333-.334.333h-1.444c-.222 0-.333-.11-.333-.333v-8.888c0-.111 0-.111-.111-.111 0 0-.111 0-.111.11l-3.889 8.556c-.333.666-.667.666-1.11.666h-1.779c-.333 0-.666-.333-.666-.666v-12.11z"/><path id="21ddw" d="M818.997 428.336h1.777c.223 0 .334.223.334.334v4c0 1.555.777 1.888 2.222 1.888.888 0 2.11-.333 2.777-.555v-5.333c0-.223.111-.334.334-.334h1.777c.222 0 .333.223.333.334v12.443c0 .222-.11.333-.333.333h-1.777c-.223 0-.334-.11-.334-.333v-5.11c-.777.333-2 .666-3.444.666-2.889 0-4-1.778-4-3.889v-4.11c0-.111.223-.334.334-.334z"/><path id="21ddx" d="M838.53 441.335c-.555.111-1.222.222-3.333.222-2.333 0-4.11-.666-4.11-3.666v-6.11c0-3 1.777-3.667 4.11-3.667 2.111 0 2.778.111 3.334.222.222 0 .333.111.333.334v1.11c0 .223-.111.334-.334.334h-3.555c-1 0-1.444.333-1.444 1.555v1.89h4.777c.222 0 .334.11.334.332v1.223c0 .222-.112.333-.334.333h-4.777v2.222c0 1.11.333 1.555 1.444 1.555h3.555c.223 0 .334.111.334.334v1.11c.11.556 0 .667-.334.667z"/><path id="21ddy" d="M848.622 441.335c-.222.111-1.444.334-2.777.334-2.111 0-5-1-5-5.444v-2.556c0-4.444 2.889-5.444 5-5.444 1.333 0 2.555.222 2.777.334.223.11.334.11.334.444v1.222c0 .222-.111.333-.334.333-.666 0-1.777-.11-2.777-.11-1.444 0-2.555.777-2.555 3.332v2.556c0 2.444 1.11 3.333 2.555 3.333.889 0 2.11-.111 2.777-.111.223 0 .334.11.334.333v1.222c.11.111-.111.111-.334.222z"/><path id="21ddz" d="M860.335 441.446h-2.333c-.222 0-.333 0-.444-.222l-4-6v5.889c0 .222-.111.333-.333.333h-1.778c-.222 0-.333-.11-.333-.333v-12.332c0-.222.111-.334.333-.334h1.778c.222 0 .333.112.333.334v5.555l4.333-5.777c.111-.112.222-.112.444-.112h2c.222 0 .334.112.334.223 0 .11 0 .222-.112.333l-4.555 5.888 4.555 6.444c0 .111.112.111.112.222 0-.11-.112-.11-.334-.11z"/><path id="21ddA" d="M867.78 430.558c0-.222-.112-.333-.334-.333-.222 0-.222.111-.333.333l-1.223 5.222h3.111zm4.777 10.888h-1.89c-.11 0-.333-.11-.333-.333l-.777-3.333h-4.111l-.778 3.333c0 .111-.222.333-.333.333h-1.889c-.222 0-.333-.11-.333-.333v-.111l2.889-11.11c.444-1.667 1.666-1.778 2.444-1.778s2 .111 2.444 1.778l2.889 11.11v.111c.11.222-.111.333-.222.333z"/><path id="21ddB" d="M877.334 432.336c0 1.555.778 2 2.666 2h1.556v-4c-.334 0-1.222-.111-1.556-.111-1.777 0-2.666.556-2.666 1.889zm-2.889 8.777l2.778-5.11c-1.445-.556-2.333-1.778-2.333-3.556v-.111c0-3 2.333-4 5.11-4 1.334 0 2.556.111 3.444.223.334 0 .556.222.556.555v12.11c0 .222-.111.333-.333.333h-1.778c-.222 0-.333-.11-.333-.333v-4.777c-.445 0-1.111.11-1.556.11h-.222l-2.555 4.667c-.111.222-.111.333-.334.333h-2.11a.239.239 0 0 1-.223-.222c-.11-.11-.11-.11-.11-.222z"/><path id="21ddC" d="M714.66 463.889h-2.334c-.222 0-.333 0-.444-.222l-4-6v5.889c0 .222-.111.333-.333.333h-1.778c-.222 0-.333-.111-.333-.333v-12.444c0-.222.11-.333.333-.333h1.778c.222 0 .333.11.333.333v5.666l4.333-5.777c.111-.111.222-.111.444-.111h2c.222 0 .334.111.334.222s0 .222-.112.333l-4.555 5.889 4.444 6.222c0 .11.111.11.111.222 0 .11-.11.11-.222.11z"/><path id="21ddD" d="M723.436 456.112c0-2.333-.777-3.333-2.555-3.333s-2.555 1-2.555 3.333v2.333c0 2.333.777 3.333 2.555 3.333s2.555-1 2.555-3.333zM720.77 464c-2.889 0-5-1.667-5-5.555v-2.333c0-3.889 2.111-5.555 5-5.555 2.888 0 5 1.666 5 5.555v2.333c.11 4-2 5.555-5 5.555z"/><path id="21ddE" d="M739.213 463.889h-1.778c-.111 0-.333-.222-.333-.333v-8.222-.222l-.111.11-1.667 3.334a.611.611 0 0 1-.555.333h-1.778a.611.611 0 0 1-.556-.333l-1.666-3.333-.111-.111V463.556c0 .222-.111.333-.333.333h-1.778c-.111 0-.333-.111-.333-.222v-12.222c0-.333.333-.666.666-.666h1.445c.333 0 .555.222.666.444l2.667 5.444c.11.111.11.222.222.222.11 0 .11-.11.222-.222l2.666-5.444c.112-.222.334-.444.667-.444h1.444c.334 0 .667.333.667.666v12.11c0 .223-.111.334-.333.334z"/><path id="21ddF" d="M752.212 463.556c0 .222-.112.333-.334.333h-1.777c-.223 0-.334-.111-.334-.333v-9.777c0-.667-.222-.89-.777-.89h-3.556c-.555 0-.777.223-.777.89v9.777c0 .222-.111.333-.334.333h-1.777c-.222 0-.334-.111-.334-.333v-9.777c0-2.111.89-3 3.222-3h3.556c2.333 0 3.222.889 3.222 3z"/><path id="21ddG" d="M759.766 453c0-.221-.11-.332-.333-.332-.222 0-.222.11-.333.333l-1.222 5.222h3.11zm4.778 10.889h-1.889c-.111 0-.333-.111-.333-.333l-.778-3.334h-4.11l-.778 3.334c0 .11-.223.333-.334.333h-1.888c-.223 0-.334-.111-.334-.333v-.112l2.889-11.11c.444-1.666 1.666-1.777 2.444-1.777s2 .11 2.444 1.777l2.89 11.11v.112c0 .222-.112.333-.223.333z"/><path id="21ddH" d="M776.32 463.889h-1.777c-.222 0-.333-.111-.333-.333v-5.444h-5v5.444c0 .222-.111.333-.333.333h-1.778c-.222 0-.333-.111-.333-.333v-12.444c0-.222.111-.333.333-.333h1.778c.222 0 .333.11.333.333v4.889h5v-4.889c0-.222.11-.333.333-.333h1.778c.222 0 .333.11.333.333v12.444c0 .222-.222.333-.333.333z"/><path id="21ddI" d="M779.32 451.112c0-.222.111-.333.334-.333h1.555c.222 0 .333.111.333.333v9.333c0 .11 0 .11.112.11 0 0 .11 0 .11-.11l4.111-9.11c.223-.445.445-.556.778-.556h1.889c.333 0 .666.333.666.666v12.11c0 .223-.11.334-.333.334h-1.555c-.222 0-.334-.111-.334-.333v-8.889c0-.11 0-.11-.11-.11 0 0-.112 0-.112.11l-3.888 8.555c-.334.667-.667.667-1.111.667h-1.778c-.444 0-.667-.333-.667-.667v-12.11z"/><path id="21ddJ" d="M794.208 454.779c0 1.555.778 2 2.666 2h1.556v-4c-.333 0-1.222-.111-1.556-.111-1.777 0-2.666.555-2.666 1.888zm-2.889 8.777l2.778-5.111c-1.444-.556-2.333-1.778-2.333-3.555v-.223c0-3 2.333-4 5.11-4 1.334 0 2.556.112 3.445.223.333 0 .555.222.555.555v12.11c0 .223-.111.334-.333.334h-1.778c-.222 0-.333-.111-.333-.333v-4.778c-.445 0-1.111.111-1.556.111h-.222l-2.555 4.667c-.111.222-.111.333-.333.333h-2.111a.239.239 0 0 1-.223-.222c-.11 0-.11-.111-.11-.111z"/></defs><g><g transform="translate(-705 -405)"><g><g><use fill="#797c82" xlink:href="#21dda"/></g><g><use fill="#797c82" xlink:href="#21ddb"/></g><g><use fill="#797c82" xlink:href="#21ddc"/></g><g><use fill="#797c82" xlink:href="#21ddd"/></g><g><use fill="#797c82" xlink:href="#21dde"/></g><g><use fill="#797c82" xlink:href="#21ddf"/></g><g><use fill="#797c82" xlink:href="#21ddg"/></g><g><use fill="#797c82" xlink:href="#21ddh"/></g><g><use fill="#797c82" xlink:href="#21ddi"/></g><g><use fill="#797c82" xlink:href="#21ddj"/></g><g><use fill="#797c82" xlink:href="#21ddk"/></g><g><use fill="#797c82" xlink:href="#21ddl"/></g></g><g><g><use fill="#797c82" xlink:href="#21ddm"/></g><g><use fill="#797c82" xlink:href="#21ddn"/></g><g><use fill="#797c82" xlink:href="#21ddo"/></g><g><use fill="#797c82" xlink:href="#21ddp"/></g><g><use fill="#797c82" xlink:href="#21ddq"/></g><g><use fill="#797c82" xlink:href="#21ddr"/></g><g><use fill="#797c82" xlink:href="#21dds"/></g><g><use fill="#797c82" xlink:href="#21ddt"/></g><g><use fill="#797c82" xlink:href="#21ddu"/></g><g><use fill="#797c82" xlink:href="#21ddv"/></g><g><use fill="#797c82" xlink:href="#21ddw"/></g><g><use fill="#797c82" xlink:href="#21ddx"/></g><g><use fill="#797c82" xlink:href="#21ddy"/></g><g><use fill="#797c82" xlink:href="#21ddz"/></g><g><use fill="#797c82" xlink:href="#21ddA"/></g><g><use fill="#797c82" xlink:href="#21ddB"/></g></g><g><g><use fill="#797c82" xlink:href="#21ddC"/></g><g><use fill="#797c82" xlink:href="#21ddD"/></g><g><use fill="#797c82" xlink:href="#21ddE"/></g><g><use fill="#797c82" xlink:href="#21ddF"/></g><g><use fill="#797c82" xlink:href="#21ddG"/></g><g><use fill="#797c82" xlink:href="#21ddH"/></g><g><use fill="#797c82" xlink:href="#21ddI"/></g><g><use fill="#797c82" xlink:href="#21ddJ"/></g></g></g></g></svg>