<svg xmlns="http://www.w3.org/2000/svg" xmlns:xlink="http://www.w3.org/1999/xlink" width="67" height="45" viewBox="0 0 67 45"><defs><path id="a3iea" d="M747.33 358.777c3.555 2.666 5.777 6.888 5.777 11.665 0 8-6.555 14.555-14.554 14.555-2.556 0-5-.667-7.11-1.889v9.666l40.662-17.665v-27.11zm-23.332 11.554c0-7.999 6.555-14.554 14.555-14.554 2.555 0 5 .667 7.11 1.889V348L705 365.554v27.109l24.887-10.777a14.2 14.2 0 0 1-5.889-11.555z"/><path id="a3ieb" d="M746.441 370.331c0 4.333-3.555 7.778-7.777 7.778-4.333 0-7.888-3.556-7.888-7.778 0-4.333 3.555-7.777 7.888-7.777 4.222 0 7.777 3.444 7.777 7.777z"/></defs><g><g transform="translate(-705 -348)"><use fill="#797c82" xlink:href="#a3iea"/></g><g transform="translate(-705 -348)"><use fill="#ee2e24" xlink:href="#a3ieb"/></g></g></svg>